<?xml version="1.0" encoding="UTF-8"?>
<svg width="26px" height="26px" viewBox="0 0 26 26" version="1.1" xmlns="http://www.w3.org/2000/svg" xmlns:xlink="http://www.w3.org/1999/xlink">
    <!-- Generator: Sketch 51 (57462) - http://www.bohemiancoding.com/sketch -->
    <title>cloud-drizzle</title>
    <desc>Created with Sketch.</desc>
    <defs></defs>
    <g id="Final" stroke="none" stroke-width="1" fill="none" fill-rule="evenodd">
        <g id="v1-2-1-home-dashboard" transform="translate(-212.000000, -365.000000)">
            <rect fill="#F8F8F8" x="0" y="0" width="1366" height="768"></rect>
            <g id="status" transform="translate(39.000000, 195.000000)">
                <g id="Group" transform="translate(1.000000, 40.000000)">
                    <g id="Group-2" transform="translate(-15.000000, -596.000000)">
                        <g id="Group-3-Copy" transform="translate(120.000000, 699.000000)">
                            <g id="Group-4" transform="translate(67.000000, 27.000000)">
                                <rect id="Rectangle-4" fill-rule="nonzero" x="0" y="0" width="26" height="26"></rect>
                                <g id="cloud-drizzle" transform="translate(1.000000, 2.000000)" stroke="#333333" stroke-linecap="round" stroke-linejoin="round" stroke-width="3">
                                    <path d="M14,18 L14,20" id="Shape"></path>
                                    <path d="M14,11 L14,13" id="Shape"></path>
                                    <path d="M9,20 L9,22" id="Shape"></path>
                                    <path d="M9,13 L9,15" id="Shape"></path>
                                    <path d="M20,15.58 C22.1666971,14.6310615 23.3719893,12.2936524 22.8885932,9.97818513 C22.4051971,7.66271783 20.3653864,6.00278331 18,6 L16.74,6 C15.8695943,2.62945307 12.9194928,0.208656038 9.44387933,0.0129425627 C5.96826587,-0.182770913 2.76504323,1.89152946 1.52174557,5.14305273 C0.2784479,8.394576 1.28050125,12.0768642 4,14.25" id="Shape"></path>
                                </g>
                            </g>
                        </g>
                    </g>
                </g>
            </g>
        </g>
    </g>
</svg>